# xmcd
#
# Track frame offsets:
#	150
#	14053
#	29234
#	46990
#	62438
#	76864
#	89749
#	103029
#	117054
#	126921
#	141285
#	153821
#	166253
#	180843
#	192733
#	207223
#
# Disc length: 2940
#
# Revision: 1
# Processed by: cddbd v1.5.1PL0 Copyright (c) Steve Scherf et al.
# Submitted via: kTunes Pro (development) 1.0patch40
#
DISCID=da0b7a10
DTITLE=Merle Haggard - ES2
DYEAR=2005
DGENRE=Country
TTITLE0=Merle Haggard - Let's Chase Other
TTITLE1=Merle Haggard - Natural High
TTITLE2=Merle Haggard - A Place To Fall Apart
TTITLE3=Merle Haggard - Twinkle Twinkle Little Star
TTITLE4=Merle Haggard - That's The Way Love Goes
TTITLE5=Merle Haggard - Better Love Next Time
TTITLE6=Merle Haggard - The Bottle Let Me Down
TTITLE7=Merle Haggard - The Farmer's Daughter
TTITLE8=Merle Haggard - Mama Tried
TTITLE9=Merle Haggard - Ramblin' Fever
TTITLE10=Merle Haggard - Sing Me Back Home
TTITLE11=Merle Haggard - All My Friends Are Going To Be Strangers
TTITLE12=Merle Haggard - Branded Man
TTITLE13=Merle Haggard - Every Fool Has A rainbow
TTITLE14=Merle Haggard - I'm A Lonesome Fugitive
TTITLE15=Merle Haggard - Swinging Doors
EXTD=
EXTT0=
EXTT1=
EXTT2=
EXTT3=
EXTT4=
EXTT5=
EXTT6=
EXTT7=
EXTT8=
EXTT9=
EXTT10=
EXTT11=
EXTT12=
EXTT13=
EXTT14=
EXTT15=
PLAYORDER=
